<svg 
    xmlns="http://www.w3.org/2000/svg" 
    xmlns:xlink="http://www.w3.org/1999/xlink" 
    width="120" 
    zoomAndPan="magnify" 
    viewBox="0 0 375 374.999991" 
    height="120" 
    preserveAspectRatio="xMidYMid meet" 
    version="1.0"><defs><g/><clipPath 
    id="id1">
    <path d="M 78.585938 79.898438 L 293.835938 79.898438 L 293.835938 295.148438 L 78.585938 295.148438 Z M 78.585938 79.898438 " clip-rule="nonzero"/>
    </clipPath>
    <clipPath id="id2"><path d="M 186.210938 79.898438 C 126.773438 79.898438 78.585938 128.085938 78.585938 187.523438 C 78.585938 246.964844 126.773438 295.148438 186.210938 295.148438 C 245.652344 295.148438 293.835938 246.964844 293.835938 187.523438 C 293.835938 128.085938 245.652344 79.898438 186.210938 79.898438 " clip-rule="nonzero"/></clipPath><clipPath id="id3"><path d="M 85 87 L 286 87 L 286 288 L 85 288 Z M 85 87 " clip-rule="nonzero"/></clipPath><clipPath id="id4"><path d="M 44.382812 181.109375 L 159.160156 76.566406 L 294.003906 224.609375 L 179.230469 329.152344 Z M 44.382812 181.109375 " clip-rule="nonzero"/></clipPath><clipPath id="id5"><path d="M 44.382812 181.109375 L 192.425781 46.265625 L 327.273438 194.308594 L 179.230469 329.152344 Z M 44.382812 181.109375 " clip-rule="nonzero"/></clipPath></defs><g clip-path="url(#id1)"><g clip-path="url(#id2)"><path stroke-linecap="butt" transform="matrix(0.750204, 0, 0, 0.750204, 78.587519, 79.899912)" fill="none" stroke-linejoin="miter" d="M 143.458838 -0.00196487 C 64.230406 -0.00196487 -0.00210855 64.23055 -0.00210855 143.458982 C -0.00210855 222.692621 64.230406 286.919929 143.458838 286.919929 C 222.692477 286.919929 286.919785 222.692621 286.919785 143.458982 C 286.919785 64.23055 222.692477 -0.00196487 143.458838 -0.00196487 " stroke="#292826" stroke-width="2" stroke-opacity="1" stroke-miterlimit="4"/></g></g><g clip-path="url(#id3)"><g clip-path="url(#id4)"><g clip-path="url(#id5)"><path fill="#292826" d="M 253.25 261.730469 C 212.445312 298.898438 148.972656 295.933594 111.804688 255.132812 C 74.640625 214.328125 77.601562 150.851562 118.40625 113.6875 C 159.207031 76.523438 222.683594 79.484375 259.847656 120.285156 C 297.015625 161.089844 294.054688 224.566406 253.25 261.730469 Z M 119.402344 114.78125 C 79.179688 151.414062 76.265625 213.917969 112.898438 254.136719 C 149.535156 294.355469 212.035156 297.269531 252.253906 260.636719 C 292.472656 224.003906 295.390625 161.503906 258.753906 121.28125 C 222.121094 81.0625 159.621094 78.148438 119.402344 114.78125 Z M 119.402344 114.78125 " fill-opacity="1" fill-rule="nonzero"/></g></g></g><g fill="#292826" fill-opacity="1"><g transform="translate(112.299643, 219.947345)"><g><path d="M 2.289062 -76.320312 L 2.289062 -75.558594 C 8.851562 -75.558594 9.3125 -70.136719 9.3125 -55.101562 L 9.3125 -21.21875 C 9.3125 -6.183594 8.851562 -0.761719 2.289062 -0.761719 L 2.289062 0 L 22.894531 0 L 22.894531 -0.761719 C 16.332031 -0.761719 10.074219 -6.257812 10.074219 -28.46875 L 10.074219 -38.160156 L 10.152344 -70.902344 C 21.75 -46.019531 28.621094 -31.214844 40.601562 -5.570312 L 41.289062 -5.570312 C 50.675781 -30.757812 58.386719 -51.746094 66.628906 -73.800781 L 66.628906 -21.21875 C 66.628906 -6.183594 66.167969 -0.761719 59.605469 -0.761719 L 59.605469 0 L 80.210938 0 L 80.210938 -0.761719 C 73.648438 -0.761719 73.191406 -6.183594 73.191406 -21.21875 L 73.191406 -55.101562 C 73.191406 -70.136719 73.648438 -75.558594 80.210938 -75.558594 L 80.210938 -76.320312 L 66.78125 -76.320312 L 43.882812 -14.804688 L 14.578125 -76.320312 Z M 2.289062 -76.320312 "/></g></g></g><g fill="#292826" fill-opacity="1"><g transform="translate(194.793367, 219.947345)"><g><path d="M 2.289062 -13.355469 C 2.289062 -5.417969 7.328125 1.527344 16.179688 1.527344 C 31.367188 1.527344 40.296875 -11.90625 40.296875 -30.453125 C 40.296875 -34.113281 40.144531 -37.167969 39.839844 -39.609375 L 49.300781 -14.652344 C 52.203125 -6.945312 52.585938 -0.761719 41.824219 -0.761719 L 41.824219 0 L 66.855469 0 L 66.855469 -0.761719 C 62.199219 -0.761719 59.757812 -4.960938 56.402344 -13.355469 L 31.976562 -77.847656 L 31.214844 -77.847656 C 26.40625 -65.175781 23.582031 -57.621094 18.925781 -45.335938 C 18.164062 -43.351562 18.546875 -41.289062 20.683594 -41.289062 C 25.03125 -41.289062 27.324219 -49.300781 30.984375 -49.300781 C 31.976562 -49.300781 32.816406 -48.691406 32.816406 -47.242188 C 32.816406 -39.304688 2.289062 -32.128906 2.289062 -13.355469 Z M 8.777344 -14.804688 C 8.777344 -33.65625 33.65625 -36.863281 33.65625 -47.089844 C 33.65625 -49.074219 32.589844 -50.066406 31.136719 -50.066406 C 27.09375 -50.066406 24.269531 -42.050781 20.757812 -42.050781 C 19.539062 -42.050781 18.925781 -42.96875 19.917969 -45.640625 L 28.695312 -68.992188 L 37.929688 -44.648438 C 39.304688 -40.144531 39.535156 -35.945312 39.535156 -30.300781 C 39.535156 -17.78125 33.503906 -2.136719 20.757812 -2.136719 C 13.28125 -2.136719 8.777344 -7.632812 8.777344 -14.804688 Z M 8.777344 -14.804688 "/></g></g></g></svg>